<svg xmlns="http://www.w3.org/2000/svg" viewBox="0 0 120 170" fill="currentColor" data-sport="ice-hockey" data-face="right" xmlns:c2pa="http://c2pa.org/manifest"><metadata><c2pa:manifest>AAAWgmp1bWIAAAAeanVtZGMycGEAEQAQgAAAqgA4m3EDYzJwYQAAABZcanVtYgAAAEdqdW1kYzJtYQARABCAAACqADibcQN1cm46YzJwYTo0ZTdkODZkMy1jYWRmLTQ0NGYtOWFmYy02ZjA0MGQ1MDgxZGIAAAADl2p1bWIAAAApanVtZGMyYXMAEQAQgAAAqgA4m3EDYzJwYS5hc3NlcnRpb25zAAAAALxqdW1iAAAARGp1bWRjYm9yABEAEIAAAKoAOJtxE2MycGEuaW5ncmVkaWVudC52MwAAAAAYYzJzaB049CnXXF/SOc4jQpWd37kAAABwY2JvcqNpZGM6Zm9ybWF0bWltYWdlL3N2Zyt4bWxqaW5zdGFuY2VJRHgseG1wOmlpZDozMTAwZDRhNS03NTU0LTQxOGMtYTljOC00MDI5ZmI3YmY0NWFscmVsYXRpb25zaGlwaHBhcmVudE9mAAAB4mp1bWIAAABBanVtZGNib3IAEQAQgAAAqgA4m3ETYzJwYS5hY3Rpb25zLnYyAAAAABhjMnNoAyuHvXRYDI5FJNMYtHwTPQAAAZljYm9yomdhY3Rpb25zgqJmYWN0aW9ua2MycGEub3BlbmVkanBhcmFtZXRlcnOha2luZ3JlZGllbnRzgaJjdXJseC1zZWxmI2p1bWJmPWMycGEuYXNzZXJ0aW9ucy9jMnBhLmluZ3JlZGllbnQudjNkaGFzaFggyJzEHhJj/UtBIJLoy6keUTObfswmh4xzH/pQIlDW2hWkZmFjdGlvbngdY29tLmFudGhyb3BpYy5jbGF1ZGUucHJvdmlkZWRqcGFyYW1ldGVyc6F4H2NvbS5hbnRocm9waWMub3JpZ2luLWNvbmZpZGVuY2VndW5rbm93bmtkZXNjcmlwdGlvbnhmQ2xhdWRlIHByb3ZpZGVkIHRoaXMgZmlsZSBhdCB0aGUgcmVxdWVzdCBvZiBhIHVzZXIgYW5kIG1heSBoYXZlIGNyZWF0ZWQgb3IgbW9kaWZpZWQgdGhlIGZpbGUgY29udGVudHMubXNvZnR3YXJlQWdlbnShZG5hbWVmQ2xhdWRlcmFsbEFjdGlvbnNJbmNsdWRlZPUAAADIanVtYgAAAEBqdW1kY2JvcgARABCAAACqADibcRNjMnBhLmhhc2guZGF0YQAAAAAYYzJzaI3zYs058nrCt1vsCYFCOqEAAACAY2JvcqVjYWxnZnNoYTI1NmNwYWRNAAAAAAAAAAAAAAAAAGRoYXNoWCB5y9Ho5c+KoRa5H+/usCagmo4fgt61flLkhwl/Fcq6I2RuYW1lbmp1bWJmIG1hbmlmZXN0amV4Y2x1c2lvbnOBomVzdGFydBi7Zmxlbmd0aBkeBAAAAj5qdW1iAAAAJ2p1bWRjMmNsABEAEIAAAKoAOJtxA2MycGEuY2xhaW0udjIAAAACD2Nib3KlY2FsZ2ZzaGEyNTZpc2lnbmF0dXJleE1zZWxmI2p1bWJmPS9jMnBhL3VybjpjMnBhOjRlN2Q4NmQzLWNhZGYtNDQ0Zi05YWZjLTZmMDQwZDUwODFkYi9jMnBhLnNpZ25hdHVyZWppbnN0YW5jZUlEeCx4bXA6aWlkOjRkNTBmMTEwLTcxZjgtNDIzZC05ZDVkLTA1NDIzZjNkNjFmMnJjcmVhdGVkX2Fzc2VydGlvbnODomN1cmx4LXNlbGYjanVtYmY9YzJwYS5hc3NlcnRpb25zL2MycGEuaW5ncmVkaWVudC52M2RoYXNoWCDInMQeEmP9S0EgkujLqR5RM5t+zCaHjHMf+lAiUNbaFaJjdXJseCpzZWxmI2p1bWJmPWMycGEuYXNzZXJ0aW9ucy9jMnBhLmFjdGlvbnMudjJkaGFzaFggJVuVE/O+CGY3wsXIt6fba+qLWHdp0TVTxi03nTdYCEKiY3VybHgpc2VsZiNqdW1iZj1jMnBhLmFzc2VydGlvbnMvYzJwYS5oYXNoLmRhdGFkaGFzaFggVFu9pIg/PjDRFf2nnVplgYVHcNeDUnGNuNuhCdwKtJN0Y2xhaW1fZ2VuZXJhdG9yX2luZm+jZG5hbWVvQW50aHJvcGljIEZpbGVzZ3ZlcnNpb25lMS4wLjBrc3BlY1ZlcnNpb25lMi40LjAAABA4anVtYgAAAChqdW1kYzJjcwARABCAAACqADibcQNjMnBhLnNpZ25hdHVyZQAAABAIY2JvctKEWQISogEmGCFZAgowggIGMIIBjaADAgECAhRA5aAK7sI50L64g/oGQgU9Z1UTADAKBggqhkjOPQQDAzBJMRcwFQYDVQQKEw5BbnRocm9waWMsIFBCQzEuMCwGA1UEAxMlQW50aHJvcGljIENvbnRlbnQgQ3JlZGVudGlhbHMgUm9vdCBDQTAeFw0yNjA4MDcxODQzNTZaFw0yODA4MDYxOTQzNTZaMEQxFzAVBgNVBAoTDkFudGhyb3BpYywgUEJDMSkwJwYDVQQDEyBBbnRocm9waWMgQ2xhdWRlIENvbnRlbnQgU2lnbmluZzBZMBMGByqGSM49AgEGCCqGSM49AwEHA0IABJh6CmvLUBgFFNU0vUKlOVtE6djd17L5SuwX0LemFisBM3dkd/3cyjxFA3Qo5S46fX0/ihY0VZ7mfb9KF703t5OjWDBWMA4GA1UdDwEB/wQEAwIHgDAVBgNVHSUEDjAMBgorBgEEAYPoXgIBMAwGA1UdEwEB/wQCMAAwHwYDVR0jBBgwFoAUzlHiBIFOZFsj+OPEz5o+nMHXXMIwCgYIKoZIzj0EAwMDZwAwZAIwMXMdFJ4BetLLVY7ORuE9noqbbAZOZn/aArXyTwFAZfKrPzxF2vPoJNf1+UCdg1XGAjBwX1zd9WGqYkqmL5SFqw1QySjr1zJfpJM9+1rdDwSPLMOPOjKuiXjoU/pUUeG9RwmhY3BhZFkNngAAAAAAAAAAAAAAAAAAAAAAAAAAAAAAAAAAAAAAAAAAAAAAAAAAAAAAAAAAAAAAAAAAAAAAAAAAAAAAAAAAAAAAAAAAAAAAAAAAAAAAAAAAAAAAAAAAAAAAAAAAAAAAAAAAAAAAAAAAAAAAAAAAAAAAAAAAAAAAAAAAAAAAAAAAAAAAAAAAAAAAAAAAAAAAAAAAAAAAAAAAAAAAAAAAAAAAAAAAAAAAAAAAAAAAAAAAAAAAAAAAAAAAAAAAAAAAAAAAAAAAAAAAAAAAAAAAAAAAAAAAAAAAAAAAAAAAAAAAAAAAAAAAAAAAAAAAAAAAAAAAAAAAAAAAAAAAAAAAAAAAAAAAAAAAAAAAAAAAAAAAAAAAAAAAAAAAAAAAAAAAAAAAAAAAAAAAAAAAAAAAAAAAAAAAAAAAAAAAAAAAAAAAAAAAAAAAAAAAAAAAAAAAAAAAAAAAAAAAAAAAAAAAAAAAAAAAAAAAAAAAAAAAAAAAAAAAAAAAAAAAAAAAAAAAAAAAAAAAAAAAAAAAAAAAAAAAAAAAAAAAAAAAAAAAAAAAAAAAAAAAAAAAAAAAAAAAAAAAAAAAAAAAAAAAAAAAAAAAAAAAAAAAAAAAAAAAAAAAAAAAAAAAAAAAAAAAAAAAAAAAAAAAAAAAAAAAAAAAAAAAAAAAAAAAAAAAAAAAAAAAAAAAAAAAAAAAAAAAAAAAAAAAAAAAAAAAAAAAAAAAAAAAAAAAAAAAAAAAAAAAAAAAAAAAAAAAAAAAAAAAAAAAAAAAAAAAAAAAAAAAAAAAAAAAAAAAAAAAAAAAAAAAAAAAAAAAAAAAAAAAAAAAAAAAAAAAAAAAAAAAAAAAAAAAAAAAAAAAAAAAAAAAAAAAAAAAAAAAAAAAAAAAAAAAAAAAAAAAAAAAAAAAAAAAAAAAAAAAAAAAAAAAAAAAAAAAAAAAAAAAAAAAAAAAAAAAAAAAAAAAAAAAAAAAAAAAAAAAAAAAAAAAAAAAAAAAAAAAAAAAAAAAAAAAAAAAAAAAAAAAAAAAAAAAAAAAAAAAAAAAAAAAAAAAAAAAAAAAAAAAAAAAAAAAAAAAAAAAAAAAAAAAAAAAAAAAAAAAAAAAAAAAAAAAAAAAAAAAAAAAAAAAAAAAAAAAAAAAAAAAAAAAAAAAAAAAAAAAAAAAAAAAAAAAAAAAAAAAAAAAAAAAAAAAAAAAAAAAAAAAAAAAAAAAAAAAAAAAAAAAAAAAAAAAAAAAAAAAAAAAAAAAAAAAAAAAAAAAAAAAAAAAAAAAAAAAAAAAAAAAAAAAAAAAAAAAAAAAAAAAAAAAAAAAAAAAAAAAAAAAAAAAAAAAAAAAAAAAAAAAAAAAAAAAAAAAAAAAAAAAAAAAAAAAAAAAAAAAAAAAAAAAAAAAAAAAAAAAAAAAAAAAAAAAAAAAAAAAAAAAAAAAAAAAAAAAAAAAAAAAAAAAAAAAAAAAAAAAAAAAAAAAAAAAAAAAAAAAAAAAAAAAAAAAAAAAAAAAAAAAAAAAAAAAAAAAAAAAAAAAAAAAAAAAAAAAAAAAAAAAAAAAAAAAAAAAAAAAAAAAAAAAAAAAAAAAAAAAAAAAAAAAAAAAAAAAAAAAAAAAAAAAAAAAAAAAAAAAAAAAAAAAAAAAAAAAAAAAAAAAAAAAAAAAAAAAAAAAAAAAAAAAAAAAAAAAAAAAAAAAAAAAAAAAAAAAAAAAAAAAAAAAAAAAAAAAAAAAAAAAAAAAAAAAAAAAAAAAAAAAAAAAAAAAAAAAAAAAAAAAAAAAAAAAAAAAAAAAAAAAAAAAAAAAAAAAAAAAAAAAAAAAAAAAAAAAAAAAAAAAAAAAAAAAAAAAAAAAAAAAAAAAAAAAAAAAAAAAAAAAAAAAAAAAAAAAAAAAAAAAAAAAAAAAAAAAAAAAAAAAAAAAAAAAAAAAAAAAAAAAAAAAAAAAAAAAAAAAAAAAAAAAAAAAAAAAAAAAAAAAAAAAAAAAAAAAAAAAAAAAAAAAAAAAAAAAAAAAAAAAAAAAAAAAAAAAAAAAAAAAAAAAAAAAAAAAAAAAAAAAAAAAAAAAAAAAAAAAAAAAAAAAAAAAAAAAAAAAAAAAAAAAAAAAAAAAAAAAAAAAAAAAAAAAAAAAAAAAAAAAAAAAAAAAAAAAAAAAAAAAAAAAAAAAAAAAAAAAAAAAAAAAAAAAAAAAAAAAAAAAAAAAAAAAAAAAAAAAAAAAAAAAAAAAAAAAAAAAAAAAAAAAAAAAAAAAAAAAAAAAAAAAAAAAAAAAAAAAAAAAAAAAAAAAAAAAAAAAAAAAAAAAAAAAAAAAAAAAAAAAAAAAAAAAAAAAAAAAAAAAAAAAAAAAAAAAAAAAAAAAAAAAAAAAAAAAAAAAAAAAAAAAAAAAAAAAAAAAAAAAAAAAAAAAAAAAAAAAAAAAAAAAAAAAAAAAAAAAAAAAAAAAAAAAAAAAAAAAAAAAAAAAAAAAAAAAAAAAAAAAAAAAAAAAAAAAAAAAAAAAAAAAAAAAAAAAAAAAAAAAAAAAAAAAAAAAAAAAAAAAAAAAAAAAAAAAAAAAAAAAAAAAAAAAAAAAAAAAAAAAAAAAAAAAAAAAAAAAAAAAAAAAAAAAAAAAAAAAAAAAAAAAAAAAAAAAAAAAAAAAAAAAAAAAAAAAAAAAAAAAAAAAAAAAAAAAAAAAAAAAAAAAAAAAAAAAAAAAAAAAAAAAAAAAAAAAAAAAAAAAAAAAAAAAAAAAAAAAAAAAAAAAAAAAAAAAAAAAAAAAAAAAAAAAAAAAAAAAAAAAAAAAAAAAAAAAAAAAAAAAAAAAAAAAAAAAAAAAAAAAAAAAAAAAAAAAAAAAAAAAAAAAAAAAAAAAAAAAAAAAAAAAAAAAAAAAAAAAAAAAAAAAAAAAAAAAAAAAAAAAAAAAAAAAAAAAAAAAAAAAAAAAAAAAAAAAAAAAAAAAAAAAAAAAAAAAAAAAAAAAAAAAAAAAAAAAAAAAAAAAAAAAAAAAAAAAAAAAAAAAAAAAAAAAAAAAAAAAAAAAAAAAAAAAAAAAAAAAAAAAAAAAAAAAAAAAAAAAAAAAAAAAAAAAAAAAAAAAAAAAAAAAAAAAAAAAAAAAAAAAAAAAAAAAAAAAAAAAAAAAAAAAAAAAAAAAAAAAAAAAAAAAAAAAAAAAAAAAAAAAAAAAAAAAAAAAAAAAAAAAAAAAAAAAAAAAAAAAAAAAAAAAAAAAAAAAAAAAAAAAAAAAAAAAAAAAAAAAAAAAAAAAAAAAAAAAAAAAAAAAAAAAAAAAAAAAAAAAAAAAAAAAAAAAAAAAAAAAAAAAAAAAAAAAAAAAAAAAAAAAAAAAAAAAAAAAAAAAAAAAAAAAAAAAAAAAAAAAAAAAAAAAAAAAAAAAAAAAAAAAAAAAAAAAAAAAAAAAAAAAAAAAAAAAAAAAAAAAAAAAAAAAAAAAAAAAAAAAAAAAAAAAAAAAAAAAAAAAAAAAAAAAAAAAAAAAAAAAAAAAAAAAAAAAAAAAAAAAAAAAAAAAAAAAAAAAAAAAAAAAAAAAAAAAAAAAAAAAAAAAAAAAAAAAAAAAAAAAAAAAAAAAAAAAAAAAAAAAAAAAAAAAAAAAAAAAAAAAAAAAAAAAAAAAAAAAAAAAAAAAAAAAAAAAAAAAAAAAAAAAAAAAAAAAAAAAAAAAAAAAAAAAAAAAAAAAAAAAAAAAAAAAAAAAAAAAAAAAAAAAAAAAAAAAAAAAAAAAAAAAAAAAAAAAAAAAAAAAAAAAAAAAAAAAAAAAAAAAAAAAAAAAAAAAAAAAAAAAAAAAAAAAAAAAAAAAAAAAAAAAAAAAAAAAAAAAAAAAAAAAAAAAAAAAAAAAAAAAAAAAAAAAAAAAAAAAAAAAAAAAAAAAAAAAAAAAAAAAAAAAAAAAAAAAAAAAAAAAAAAAAAAAAAAAAAAAAAAAAAAAAAAAAAAAAAAAAAAAAAAAAAAAAAAAAAAAAAAAAAAAAAAAAAAAAAAAAAAAAAAAAAAAAAAAAAAAAAAAAAAAAAAAAAAAAAAAAAAAAAAAAAAAAAAAAAAAAAAAAAAAAAAAAAAAAAAAAAAAAAAAAAAAAAAAAAAAAAAAAAAAAAAAAAAAAAAAAAAAAAAAAAAAAAAAAAAAAAAAAAAAAAAAAAAAAAAAAAAAAAAAAAAAAAAAAAAAAAAAAAAAAAAAAAAAAAAAAAAAAAAAAAAAAAAAAAAAAAAAAAAAAAAAAAAAAAAAAAAAAAAAAAAAAAAAAAAAAAAAAAAAAAAAAAAAAAAAAAAAAAAAAAAAAAAAAAAAAAAAAAAAAAAAAAAAAAAAAAAAAAAAAAAAAAAAAAAAAAAAAAAAAAAAAAAAAAAAAAAAAAAAAAAAAAAAAAAAAAAAAAAAAAAAAAAAAAAAAAAAAAAAAAAAAAAAAAAAAAAAAAAAAAAAAAAAAAAAAAAAAAAAAAAAAAAAAAAAAAAAAAAAAAAAAAAAAAAAAAAAAAAAAAAAAAAAAAAAAAAAAAAAAAAAAAAAAAAAAAAAAAAAAAAAAAAAAAAAAAAAAAAAAAAAAAAAAAAAAAAAAAAAAAAAAAAAAAAAAAAAAAAAAAAAAAAAAAAAAAAAAAAAAAAAAAAAAAAAAAAAAAAAAAAAAAAAAAAAAAAAAAAAAAAAAAAAAAAAAAAAAAAAAAAAAAAAAAAAAAAAAAAAAAAAAPZYQAQcPxR4tOVJXfL59x4nnt78DNZbsd5fItTBqz/BQKjzkOXOLPUBLoH0frTXgZwzvSlEjbkP7YgcIXKd8soOioY=</c2pa:manifest></metadata>
  <path fill-rule="nonzero" d="M 42.27 103.24Q 39 104.04 37.67 105.27Q 36.33 106.5 34.99 107.72Q 33.64 108.94 32.29 110.14Q 30.94 111.35 29.59 112.57Q 28.24 113.78 26.92 115.02Q 25.6 116.27 24.3 117.54Q 23.01 118.82 21.72 120.11Q 20.44 121.4 19.15 122.68Q 17.87 123.97 16.84 126.38Q 15.81 128.8 16.5 130.65Q 17.19 132.5 18.89 133.5Q 20.59 134.5 23.12 133.88Q 25.66 133.25 27.14 132.2Q 28.61 131.14 30.13 130.12Q 31.64 129.11 33.2 128.14Q 34.75 127.18 36.33 126.23Q 37.9 125.29 39.43 124.29Q 40.96 123.29 42.39 122.18Q 43.82 121.06 45.18 119.86Q 46.53 118.66 47.88 117.44Q 49.22 116.23 50.47 113.01Q 51.72 109.8 50.83 107.41Q 49.94 105.02 47.74 103.73Q 45.54 102.43 42.27 103.24ZM 17.63 125.18Q 18.06 124.49 18.82 124.18Q 19.58 123.86 20.51 123.99Q 21.43 124.12 22.34 124.67Q 23.25 125.21 23.97 126.06Q 24.68 126.91 25.06 127.91Q 25.44 128.9 25.4 129.83Q 25.37 130.77 24.93 131.46Q 24.49 132.15 23.74 132.46Q 22.98 132.77 22.05 132.64Q 21.13 132.52 20.22 131.97Q 19.31 131.43 18.59 130.57Q 17.87 129.72 17.5 128.73Q 17.12 127.74 17.15 126.81Q 17.19 125.87 17.63 125.18ZM 16.65 124.44Q 14.3 126.64 13.81 128.45Q 13.33 130.26 12.95 132.1Q 12.58 133.94 12.38 135.83Q 12.18 137.71 12.09 139.63Q 12.01 141.55 11.91 143.46Q 11.81 145.38 11.64 147.27Q 11.46 149.17 11.22 151.05Q 10.98 152.92 10.71 154.79Q 10.44 156.66 10.75 158.24Q 11.06 159.81 12.06 160.5Q 13.06 161.19 14.28 161.1Q 15.49 161 16.56 159.79Q 17.64 158.59 18.36 156.84Q 19.08 155.09 19.82 153.35Q 20.56 151.61 21.3 149.86Q 22.04 148.12 22.75 146.37Q 23.47 144.62 24.14 142.86Q 24.8 141.1 25.44 139.33Q 26.07 137.55 26.7 135.78Q 27.32 134.01 27.97 132.24Q 28.61 130.47 28 127.48Q 27.39 124.49 25.49 123.18Q 23.6 121.88 21.3 122.06Q 19.01 122.24 16.65 124.44ZM 18.18 160.82Q 19.77 159.67 20.08 157.76Q 20.39 155.86 18.87 154.44Q 17.34 153.03 14.15 153.4Q 10.95 153.77 7.96 154.61Q 4.97 155.45 4.34 156.81Q 3.71 158.17 6 159.32Q 8.29 160.47 10.71 161.29Q 13.13 162.1 14.86 162.04Q 16.58 161.98 18.18 160.82ZM 61.99 77.09Q 61.89 79.48 62.56 80.96Q 63.22 82.45 63.87 83.94Q 64.52 85.43 65.16 86.92Q 65.8 88.42 66.45 89.91Q 67.1 91.39 67.78 92.87Q 68.46 94.35 69.17 95.81Q 69.88 97.27 70.61 98.72Q 71.34 100.18 72.06 101.64Q 72.78 103.09 74.52 104.5Q 76.25 105.91 77.92 105.78Q 79.59 105.65 80.81 104.49Q 82.02 103.33 82.11 101.12Q 82.19 98.9 81.58 97.4Q 80.96 95.9 80.38 94.37Q 79.81 92.85 79.28 91.31Q 78.76 89.76 78.26 88.2Q 77.76 86.65 77.21 85.11Q 76.67 83.58 76.01 82.09Q 75.34 80.61 74.59 79.17Q 73.83 77.73 73.06 76.29Q 72.28 74.86 70.3 73.39Q 68.31 71.93 66.51 72.07Q 64.71 72.21 63.39 73.46Q 62.08 74.7 61.99 77.09ZM 73.84 103.31Q 73.41 102.82 73.33 102.16Q 73.26 101.51 73.56 100.82Q 73.86 100.13 74.48 99.55Q 75.1 98.97 75.91 98.61Q 76.72 98.24 77.57 98.17Q 78.42 98.1 79.13 98.34Q 79.84 98.57 80.28 99.07Q 80.72 99.56 80.79 100.22Q 80.87 100.87 80.56 101.56Q 80.26 102.25 79.64 102.83Q 79.02 103.41 78.21 103.77Q 77.4 104.13 76.55 104.2Q 75.71 104.28 74.99 104.04Q 74.28 103.8 73.84 103.31ZM 73.29 98.1Q 71.63 99.95 71.35 101.42Q 71.07 102.89 70.88 104.38Q 70.69 105.87 70.63 107.39Q 70.56 108.9 70.58 110.42Q 70.59 111.95 70.59 113.47Q 70.59 115 70.53 116.51Q 70.47 118.02 70.36 119.52Q 70.25 121.03 70.13 122.53Q 70 124.03 70.41 125.45Q 70.81 126.87 71.79 127.42Q 72.76 127.97 73.86 127.78Q 74.97 127.6 75.85 126.41Q 76.73 125.22 77.14 123.77Q 77.55 122.32 77.98 120.87Q 78.4 119.42 78.83 117.97Q 79.25 116.52 79.66 115.07Q 80.07 113.62 80.44 112.16Q 80.82 110.71 81.16 109.24Q 81.51 107.78 81.85 106.32Q 82.19 104.86 82.54 103.39Q 82.89 101.93 82.22 99.68Q 81.55 97.42 80 96.54Q 78.46 95.67 76.7 95.96Q 74.95 96.26 73.29 98.1ZM 72.64 133.77Q 71.72 133.88 70.89 133.46Q 70.06 133.04 69.49 132.18Q 68.91 131.32 68.71 130.18Q 68.51 129.05 68.72 127.87Q 68.93 126.68 69.51 125.69Q 70.08 124.69 70.92 124.07Q 71.75 123.46 72.67 123.35Q 73.59 123.24 74.42 123.66Q 75.25 124.08 75.83 124.94Q 76.4 125.8 76.6 126.94Q 76.8 128.07 76.59 129.25Q 76.38 130.44 75.81 131.44Q 75.23 132.43 74.4 133.05Q 73.56 133.66 72.64 133.77ZM 68.66 74.78Q 72.15 77.82 76.12 82.44Q 80.09 87.05 75.69 90.38Q 71.28 93.7 66.28 98.75Q 61.29 103.79 56.86 111.68Q 52.44 119.57 45.49 118.68Q 38.55 117.78 35.34 111.56Q 32.12 105.35 38.47 98.19Q 44.82 91.04 47.61 84.45Q 50.39 77.85 51.81 73.05Q 53.22 68.24 59.2 69.98Q 65.18 71.73 68.66 74.78ZM 68.03 83.13Q 69.59 81.95 69.96 81.12Q 70.34 80.3 70.71 79.47Q 71.08 78.64 71.45 77.81Q 71.83 76.99 72.2 76.16Q 72.57 75.33 72.94 74.5Q 73.32 73.68 73.69 72.85Q 74.06 72.02 74.43 71.19Q 74.8 70.37 75.18 69.54Q 75.55 68.71 75.58 67.06Q 75.61 65.42 74.75 64.51Q 73.89 63.6 72.65 63.44Q 71.41 63.28 70.09 64.27Q 68.78 65.26 68.33 66.05Q 67.88 66.84 67.43 67.63Q 66.98 68.41 66.53 69.2Q 66.08 69.99 65.63 70.78Q 65.17 71.56 64.72 72.35Q 64.27 73.14 63.82 73.93Q 63.37 74.71 62.92 75.5Q 62.47 76.29 62.02 77.08Q 61.57 77.86 61.54 79.82Q 61.5 81.77 62.52 82.84Q 63.54 83.92 65.01 84.11Q 66.47 84.3 68.03 83.13ZM 79.96 66.75Q 78.89 68.18 77.35 69.1Q 75.82 70.02 74.12 70.24Q 72.42 70.46 70.9 69.94Q 69.38 69.42 68.34 68.26Q 67.3 67.1 66.94 65.54Q 66.58 63.97 66.98 62.31Q 67.38 60.64 68.45 59.21Q 69.52 57.78 71.06 56.86Q 72.6 55.94 74.3 55.72Q 75.99 55.5 77.51 56.02Q 79.03 56.54 80.08 57.69Q 81.12 58.85 81.48 60.42Q 81.83 61.98 81.44 63.65Q 81.04 65.31 79.96 66.75ZM 81.28 58.52Q 82.13 59.07 82.59 59.97Q 83.05 60.88 83.02 61.95Q 83 63.02 82.5 64.06Q 82 65.09 81.13 65.88Q 80.25 66.67 79.17 67.06Q 78.09 67.45 77.02 67.36Q 75.95 67.27 75.1 66.72Q 74.25 66.17 73.79 65.27Q 73.34 64.36 73.36 63.29Q 73.38 62.22 73.88 61.18Q 74.38 60.15 75.26 59.36Q 76.13 58.57 77.21 58.18Q 78.29 57.79 79.36 57.88Q 80.43 57.97 81.28 58.52ZM 38.15 114.09Q 39.94 117.04 41.47 118Q 43.01 118.96 44.55 119.91Q 46.1 120.86 47.7 121.71Q 49.3 122.56 50.98 123.28Q 52.66 124 54.37 124.66Q 56.09 125.31 57.79 125.99Q 59.49 126.67 61.16 127.41Q 62.82 128.15 64.46 128.93Q 66.1 129.72 68.71 129.89Q 71.31 130.06 72.81 128.78Q 74.31 127.5 74.67 125.56Q 75.03 123.62 73.6 121.42Q 72.16 119.22 70.67 118.18Q 69.18 117.13 67.69 116.09Q 66.21 115.04 64.71 114.01Q 63.21 112.98 61.69 111.98Q 60.17 110.99 58.64 110.02Q 57.1 109.06 55.56 108.11Q 54.01 107.15 52.48 106.19Q 50.94 105.23 49.42 104.25Q 47.89 103.26 44.53 103.04Q 41.17 102.82 39.23 104.47Q 37.29 106.13 36.83 108.63Q 36.36 111.14 38.15 114.09ZM 67.97 128.78Q 67.17 128.6 66.62 128Q 66.06 127.39 65.87 126.48Q 65.67 125.56 65.87 124.52Q 66.07 123.48 66.63 122.52Q 67.19 121.55 67.99 120.86Q 68.79 120.16 69.68 119.88Q 70.57 119.59 71.37 119.76Q 72.17 119.94 72.72 120.55Q 73.27 121.15 73.47 122.06Q 73.67 122.98 73.47 124.02Q 73.26 125.06 72.71 126.03Q 72.15 126.99 71.35 127.68Q 70.55 128.38 69.66 128.67Q 68.77 128.95 67.97 128.78ZM 64.31 120.39Q 62.29 122.67 61.96 124.52Q 61.63 126.38 61.29 128.23Q 60.95 130.08 60.61 131.93Q 60.27 133.78 59.97 135.64Q 59.67 137.5 59.41 139.37Q 59.16 141.24 58.93 143.12Q 58.7 145 58.46 146.88Q 58.23 148.76 57.98 150.63Q 57.73 152.51 58.06 154.09Q 58.39 155.67 59.39 156.36Q 60.39 157.05 61.61 156.96Q 62.82 156.86 63.87 155.65Q 64.93 154.44 65.63 152.68Q 66.33 150.93 67.06 149.18Q 67.79 147.44 68.59 145.71Q 69.38 143.98 70.26 142.28Q 71.13 140.57 72.01 138.86Q 72.9 137.16 73.67 135.43Q 74.44 133.69 75.03 131.91Q 75.63 130.13 76.12 128.32Q 76.6 126.51 75.66 123.43Q 74.72 120.35 72.82 119.04Q 70.93 117.74 68.63 117.92Q 66.34 118.1 64.31 120.39ZM 57.68 149.72Q 55.94 150.65 55.37 152.49Q 54.79 154.34 56.11 155.95Q 57.43 157.56 60.64 157.64Q 63.85 157.71 66.93 157.3Q 70.01 156.88 70.82 155.62Q 71.64 154.36 69.53 152.91Q 67.42 151.45 65.14 150.31Q 62.85 149.16 61.14 148.98Q 59.42 148.8 57.68 149.72ZM 61.88 77.87Q 61.99 80.33 62.74 81.77Q 63.5 83.22 64.27 84.65Q 65.04 86.09 65.9 87.46Q 66.77 88.84 67.73 90.15Q 68.7 91.47 69.71 92.75Q 70.72 94.03 71.71 95.33Q 72.7 96.63 73.64 97.96Q 74.57 99.29 75.48 100.64Q 76.38 101.99 78.26 103.16Q 80.15 104.33 81.79 103.97Q 83.42 103.61 84.47 102.29Q 85.51 100.98 85.31 98.76Q 85.12 96.54 84.31 95.12Q 83.51 93.71 82.71 92.29Q 81.91 90.88 81.1 89.47Q 80.28 88.06 79.44 86.67Q 78.6 85.28 77.72 83.91Q 76.85 82.54 75.97 81.17Q 75.09 79.81 74.22 78.44Q 73.35 77.07 72.49 75.69Q 71.63 74.31 69.6 73.05Q 67.56 71.79 65.8 72.18Q 64.03 72.57 62.9 73.99Q 61.78 75.4 61.88 77.87ZM 77.41 102.1Q 76.9 101.67 76.74 101.03Q 76.57 100.39 76.78 99.67Q 76.98 98.95 77.51 98.28Q 78.04 97.62 78.8 97.15Q 79.55 96.68 80.38 96.49Q 81.21 96.3 81.95 96.44Q 82.69 96.57 83.19 97Q 83.69 97.43 83.85 98.07Q 84.02 98.71 83.82 99.43Q 83.61 100.15 83.08 100.81Q 82.55 101.47 81.8 101.95Q 81.04 102.42 80.21 102.6Q 79.38 102.79 78.65 102.66Q 77.91 102.52 77.41 102.1ZM 76.4 97.02Q 75.27 99.09 75.31 100.6Q 75.35 102.1 75.38 103.6Q 75.4 105.1 75.44 106.6Q 75.47 108.11 75.53 109.61Q 75.6 111.11 75.69 112.62Q 75.79 114.12 75.91 115.63Q 76.03 117.13 76.14 118.64Q 76.25 120.14 76.35 121.64Q 76.45 123.15 77.07 124.5Q 77.68 125.85 78.72 126.26Q 79.76 126.67 80.83 126.33Q 81.9 125.99 82.59 124.69Q 83.29 123.39 83.47 121.89Q 83.66 120.4 83.87 118.9Q 84.08 117.41 84.33 115.92Q 84.59 114.43 84.9 112.94Q 85.22 111.45 85.55 109.96Q 85.88 108.47 86.13 106.98Q 86.39 105.48 86.51 103.99Q 86.63 102.49 86.67 100.99Q 86.7 99.49 85.46 97.34Q 84.21 95.19 82.56 94.54Q 80.91 93.89 79.22 94.42Q 77.52 94.96 76.4 97.02ZM 80.45 132.43Q 79.56 132.66 78.68 132.36Q 77.8 132.07 77.11 131.29Q 76.42 130.52 76.06 129.42Q 75.71 128.33 75.75 127.13Q 75.79 125.93 76.22 124.86Q 76.66 123.79 77.4 123.07Q 78.14 122.34 79.03 122.11Q 79.93 121.87 80.81 122.17Q 81.69 122.47 82.38 123.24Q 83.06 124.01 83.42 125.11Q 83.78 126.2 83.74 127.41Q 83.7 128.61 83.26 129.67Q 82.83 130.74 82.09 131.47Q 81.35 132.19 80.45 132.43Z"></path>
  <path fill="none" stroke="currentColor" stroke-width="3" stroke-linecap="round" d="M 80.88 126.27 L 100 152"></path>
  <path fill="none" stroke="currentColor" stroke-width="3.4" stroke-linecap="round" d="M 99 155 L 117 155"></path>
  <path d="M 101.8 145a 4.2 4.2 0 1 0 8.4 0a 4.2 4.2 0 1 0 -8.4 0Z"></path>
  <path d="M 54.35 161.48Q 54.35 160.48 61.85 160.48Q 69.35 160.48 69.35 161.48Q 69.35 162.48 61.85 162.48Q 54.35 162.48 54.35 161.48Z"></path>
  <path d="M 7.02 165.62Q 7.02 164.62 14.52 164.62Q 22.02 164.62 22.02 165.62Q 22.02 166.62 14.52 166.62Q 7.02 166.62 7.02 165.62Z"></path>
  <path opacity="0.45" d="M -6 164.5Q -6 162 60 160.5Q 126 159 126 161.5Q 126 164 60 165.5Q -6 167 -6 164.5Z"></path>
</svg>